<mxfile host="app.diagrams.net" modified="2021-03-21T03:51:54.356Z" agent="5.0 (Windows NT 10.0; Win64; x64) AppleWebKit/537.36 (KHTML, like Gecko) Chrome/89.0.4389.82 Safari/537.36" etag="1S-TiRHJXoWUHMHR1Njt" version="14.4.8" type="github">
  <diagram id="X-QBcNZHW3CFy5ewWosT" name="第 1 页">
    <mxGraphModel dx="1422" dy="706" grid="0" gridSize="10" guides="1" tooltips="1" connect="1" arrows="1" fold="1" page="1" pageScale="1" pageWidth="827" pageHeight="1169" math="0" shadow="1">
      <root>
        <mxCell id="0" />
        <mxCell id="1" parent="0" />
        <mxCell id="uQSnoUeBgvPZ3RYxkMRT-86" value="" style="html=1;shadow=0;dashed=0;align=center;verticalAlign=middle;shape=mxgraph.arrows2.arrow;dy=0.6;dx=40;direction=south;notch=0;fillColor=#6d8764;strokeColor=#3A5431;fontColor=#ffffff;" vertex="1" parent="1">
          <mxGeometry x="373" y="280" width="41" height="70" as="geometry" />
        </mxCell>
        <mxCell id="uQSnoUeBgvPZ3RYxkMRT-87" value="" style="group" vertex="1" connectable="0" parent="1">
          <mxGeometry x="80" y="40" width="600" height="240" as="geometry" />
        </mxCell>
        <mxCell id="uQSnoUeBgvPZ3RYxkMRT-68" value="" style="group" vertex="1" connectable="0" parent="uQSnoUeBgvPZ3RYxkMRT-87">
          <mxGeometry width="240" height="240" as="geometry" />
        </mxCell>
        <mxCell id="uQSnoUeBgvPZ3RYxkMRT-1" value="" style="ellipse;whiteSpace=wrap;html=1;aspect=fixed;fillColor=#d5e8d4;strokeColor=#82b366;" vertex="1" parent="uQSnoUeBgvPZ3RYxkMRT-68">
          <mxGeometry x="60" y="80" width="40" height="40" as="geometry" />
        </mxCell>
        <mxCell id="uQSnoUeBgvPZ3RYxkMRT-2" value="" style="ellipse;whiteSpace=wrap;html=1;aspect=fixed;fillColor=#d5e8d4;strokeColor=#82b366;" vertex="1" parent="uQSnoUeBgvPZ3RYxkMRT-68">
          <mxGeometry x="141" y="80" width="40" height="40" as="geometry" />
        </mxCell>
        <mxCell id="uQSnoUeBgvPZ3RYxkMRT-3" value="" style="rounded=0;orthogonalLoop=1;jettySize=auto;html=1;startArrow=block;startFill=1;endArrow=open;endFill=0;" edge="1" parent="uQSnoUeBgvPZ3RYxkMRT-68" source="uQSnoUeBgvPZ3RYxkMRT-1" target="uQSnoUeBgvPZ3RYxkMRT-2">
          <mxGeometry as="geometry" />
        </mxCell>
        <mxCell id="uQSnoUeBgvPZ3RYxkMRT-4" value="" style="ellipse;whiteSpace=wrap;html=1;aspect=fixed;fillColor=#d5e8d4;strokeColor=#82b366;" vertex="1" parent="uQSnoUeBgvPZ3RYxkMRT-68">
          <mxGeometry x="200" y="140" width="40" height="40" as="geometry" />
        </mxCell>
        <mxCell id="uQSnoUeBgvPZ3RYxkMRT-8" style="rounded=0;orthogonalLoop=1;jettySize=auto;html=1;exitX=1;exitY=1;exitDx=0;exitDy=0;entryX=0;entryY=0;entryDx=0;entryDy=0;startArrow=block;startFill=1;endArrow=open;endFill=0;" edge="1" parent="uQSnoUeBgvPZ3RYxkMRT-68" source="uQSnoUeBgvPZ3RYxkMRT-2" target="uQSnoUeBgvPZ3RYxkMRT-4">
          <mxGeometry as="geometry" />
        </mxCell>
        <mxCell id="uQSnoUeBgvPZ3RYxkMRT-10" style="edgeStyle=none;rounded=0;orthogonalLoop=1;jettySize=auto;html=1;exitX=1;exitY=0;exitDx=0;exitDy=0;entryX=0;entryY=1;entryDx=0;entryDy=0;startArrow=block;startFill=1;endArrow=open;endFill=0;" edge="1" parent="uQSnoUeBgvPZ3RYxkMRT-68" source="uQSnoUeBgvPZ3RYxkMRT-6" target="uQSnoUeBgvPZ3RYxkMRT-1">
          <mxGeometry as="geometry" />
        </mxCell>
        <mxCell id="uQSnoUeBgvPZ3RYxkMRT-6" value="" style="ellipse;whiteSpace=wrap;html=1;aspect=fixed;fillColor=#d5e8d4;strokeColor=#82b366;" vertex="1" parent="uQSnoUeBgvPZ3RYxkMRT-68">
          <mxGeometry y="140" width="40" height="40" as="geometry" />
        </mxCell>
        <mxCell id="uQSnoUeBgvPZ3RYxkMRT-12" style="edgeStyle=none;rounded=0;orthogonalLoop=1;jettySize=auto;html=1;exitX=0;exitY=0.5;exitDx=0;exitDy=0;entryX=1;entryY=1;entryDx=0;entryDy=0;startArrow=block;startFill=1;endArrow=open;endFill=0;" edge="1" parent="uQSnoUeBgvPZ3RYxkMRT-68" source="uQSnoUeBgvPZ3RYxkMRT-11" target="uQSnoUeBgvPZ3RYxkMRT-6">
          <mxGeometry as="geometry" />
        </mxCell>
        <mxCell id="uQSnoUeBgvPZ3RYxkMRT-11" value="" style="ellipse;whiteSpace=wrap;html=1;aspect=fixed;fillColor=#d5e8d4;strokeColor=#82b366;" vertex="1" parent="uQSnoUeBgvPZ3RYxkMRT-68">
          <mxGeometry x="100" y="200" width="40" height="40" as="geometry" />
        </mxCell>
        <mxCell id="uQSnoUeBgvPZ3RYxkMRT-67" style="edgeStyle=none;rounded=0;orthogonalLoop=1;jettySize=auto;html=1;exitX=0;exitY=1;exitDx=0;exitDy=0;entryX=1;entryY=0.5;entryDx=0;entryDy=0;startArrow=block;startFill=1;endArrow=open;endFill=0;" edge="1" parent="uQSnoUeBgvPZ3RYxkMRT-68" source="uQSnoUeBgvPZ3RYxkMRT-4" target="uQSnoUeBgvPZ3RYxkMRT-11">
          <mxGeometry relative="1" as="geometry" />
        </mxCell>
        <mxCell id="uQSnoUeBgvPZ3RYxkMRT-16" style="edgeStyle=none;rounded=0;orthogonalLoop=1;jettySize=auto;html=1;exitX=0.5;exitY=1;exitDx=0;exitDy=0;entryX=0.5;entryY=0;entryDx=0;entryDy=0;startArrow=none;startFill=0;endArrow=classic;endFill=1;" edge="1" parent="uQSnoUeBgvPZ3RYxkMRT-68" source="uQSnoUeBgvPZ3RYxkMRT-14" target="uQSnoUeBgvPZ3RYxkMRT-2">
          <mxGeometry as="geometry" />
        </mxCell>
        <mxCell id="uQSnoUeBgvPZ3RYxkMRT-14" value="" style="ellipse;whiteSpace=wrap;html=1;aspect=fixed;" vertex="1" parent="uQSnoUeBgvPZ3RYxkMRT-68">
          <mxGeometry x="141" width="40" height="40" as="geometry" />
        </mxCell>
        <mxCell id="uQSnoUeBgvPZ3RYxkMRT-17" value="list1 头" style="text;html=1;align=center;verticalAlign=middle;resizable=0;points=[];autosize=1;" vertex="1" parent="uQSnoUeBgvPZ3RYxkMRT-68">
          <mxGeometry x="85" width="50" height="20" as="geometry" />
        </mxCell>
        <mxCell id="uQSnoUeBgvPZ3RYxkMRT-64" value="" style="verticalLabelPosition=bottom;verticalAlign=top;html=1;shape=mxgraph.basic.x;strokeColor=#A50040;fontColor=#ffffff;fillColor=#FF3333;" vertex="1" parent="uQSnoUeBgvPZ3RYxkMRT-68">
          <mxGeometry x="210" y="110" width="20" height="20" as="geometry" />
        </mxCell>
        <mxCell id="uQSnoUeBgvPZ3RYxkMRT-19" value="" style="ellipse;whiteSpace=wrap;html=1;aspect=fixed;fillColor=#f8cecc;strokeColor=#b85450;" vertex="1" parent="uQSnoUeBgvPZ3RYxkMRT-87">
          <mxGeometry x="420" y="80" width="40" height="40" as="geometry" />
        </mxCell>
        <mxCell id="uQSnoUeBgvPZ3RYxkMRT-21" value="" style="ellipse;whiteSpace=wrap;html=1;aspect=fixed;fillColor=#f8cecc;strokeColor=#b85450;" vertex="1" parent="uQSnoUeBgvPZ3RYxkMRT-87">
          <mxGeometry x="501" y="80" width="40" height="40" as="geometry" />
        </mxCell>
        <mxCell id="uQSnoUeBgvPZ3RYxkMRT-18" value="" style="rounded=0;orthogonalLoop=1;jettySize=auto;html=1;startArrow=block;startFill=1;endArrow=open;endFill=0;" edge="1" parent="uQSnoUeBgvPZ3RYxkMRT-87" source="uQSnoUeBgvPZ3RYxkMRT-19" target="uQSnoUeBgvPZ3RYxkMRT-21">
          <mxGeometry x="360" as="geometry" />
        </mxCell>
        <mxCell id="uQSnoUeBgvPZ3RYxkMRT-22" value="" style="ellipse;whiteSpace=wrap;html=1;aspect=fixed;fillColor=#f8cecc;strokeColor=#b85450;" vertex="1" parent="uQSnoUeBgvPZ3RYxkMRT-87">
          <mxGeometry x="560" y="140" width="40" height="40" as="geometry" />
        </mxCell>
        <mxCell id="uQSnoUeBgvPZ3RYxkMRT-20" style="rounded=0;orthogonalLoop=1;jettySize=auto;html=1;exitX=1;exitY=1;exitDx=0;exitDy=0;entryX=0;entryY=0;entryDx=0;entryDy=0;startArrow=block;startFill=1;endArrow=open;endFill=0;" edge="1" parent="uQSnoUeBgvPZ3RYxkMRT-87" source="uQSnoUeBgvPZ3RYxkMRT-21" target="uQSnoUeBgvPZ3RYxkMRT-22">
          <mxGeometry x="360" as="geometry" />
        </mxCell>
        <mxCell id="uQSnoUeBgvPZ3RYxkMRT-71" style="edgeStyle=none;rounded=0;orthogonalLoop=1;jettySize=auto;html=1;exitX=1;exitY=0;exitDx=0;exitDy=0;entryX=0;entryY=1;entryDx=0;entryDy=0;startArrow=block;startFill=1;endArrow=open;endFill=0;" edge="1" parent="uQSnoUeBgvPZ3RYxkMRT-87" source="uQSnoUeBgvPZ3RYxkMRT-24" target="uQSnoUeBgvPZ3RYxkMRT-19">
          <mxGeometry relative="1" as="geometry" />
        </mxCell>
        <mxCell id="uQSnoUeBgvPZ3RYxkMRT-24" value="" style="ellipse;whiteSpace=wrap;html=1;aspect=fixed;fillColor=#f8cecc;strokeColor=#b85450;" vertex="1" parent="uQSnoUeBgvPZ3RYxkMRT-87">
          <mxGeometry x="360" y="140" width="40" height="40" as="geometry" />
        </mxCell>
        <mxCell id="uQSnoUeBgvPZ3RYxkMRT-70" style="edgeStyle=none;rounded=0;orthogonalLoop=1;jettySize=auto;html=1;exitX=0;exitY=0.5;exitDx=0;exitDy=0;entryX=1;entryY=1;entryDx=0;entryDy=0;startArrow=block;startFill=1;endArrow=open;endFill=0;" edge="1" parent="uQSnoUeBgvPZ3RYxkMRT-87" source="uQSnoUeBgvPZ3RYxkMRT-27" target="uQSnoUeBgvPZ3RYxkMRT-24">
          <mxGeometry relative="1" as="geometry" />
        </mxCell>
        <mxCell id="uQSnoUeBgvPZ3RYxkMRT-27" value="" style="ellipse;whiteSpace=wrap;html=1;aspect=fixed;fillColor=#f8cecc;strokeColor=#b85450;" vertex="1" parent="uQSnoUeBgvPZ3RYxkMRT-87">
          <mxGeometry x="460" y="200" width="40" height="40" as="geometry" />
        </mxCell>
        <mxCell id="uQSnoUeBgvPZ3RYxkMRT-69" style="edgeStyle=none;rounded=0;orthogonalLoop=1;jettySize=auto;html=1;exitX=0;exitY=1;exitDx=0;exitDy=0;entryX=1;entryY=0.5;entryDx=0;entryDy=0;startArrow=block;startFill=1;endArrow=open;endFill=0;" edge="1" parent="uQSnoUeBgvPZ3RYxkMRT-87" source="uQSnoUeBgvPZ3RYxkMRT-22" target="uQSnoUeBgvPZ3RYxkMRT-27">
          <mxGeometry relative="1" as="geometry" />
        </mxCell>
        <mxCell id="uQSnoUeBgvPZ3RYxkMRT-33" style="edgeStyle=none;rounded=0;orthogonalLoop=1;jettySize=auto;html=1;exitX=0.5;exitY=1;exitDx=0;exitDy=0;entryX=0.5;entryY=0;entryDx=0;entryDy=0;startArrow=none;startFill=0;endArrow=classic;endFill=1;" edge="1" parent="uQSnoUeBgvPZ3RYxkMRT-87" source="uQSnoUeBgvPZ3RYxkMRT-29" target="uQSnoUeBgvPZ3RYxkMRT-19">
          <mxGeometry x="360" as="geometry" />
        </mxCell>
        <mxCell id="uQSnoUeBgvPZ3RYxkMRT-29" value="" style="ellipse;whiteSpace=wrap;html=1;aspect=fixed;" vertex="1" parent="uQSnoUeBgvPZ3RYxkMRT-87">
          <mxGeometry x="420" width="40" height="40" as="geometry" />
        </mxCell>
        <mxCell id="uQSnoUeBgvPZ3RYxkMRT-30" value="list2 头" style="text;html=1;align=center;verticalAlign=middle;resizable=0;points=[];autosize=1;" vertex="1" parent="uQSnoUeBgvPZ3RYxkMRT-87">
          <mxGeometry x="480" width="50" height="20" as="geometry" />
        </mxCell>
        <mxCell id="uQSnoUeBgvPZ3RYxkMRT-65" value="" style="verticalLabelPosition=bottom;verticalAlign=top;html=1;shape=mxgraph.basic.x;strokeColor=#A50040;fontColor=#ffffff;fillColor=#FF3333;" vertex="1" parent="uQSnoUeBgvPZ3RYxkMRT-87">
          <mxGeometry x="380" y="110" width="20" height="20" as="geometry" />
        </mxCell>
        <mxCell id="uQSnoUeBgvPZ3RYxkMRT-88" value="" style="group" vertex="1" connectable="0" parent="1">
          <mxGeometry x="120" y="360" width="520" height="250" as="geometry" />
        </mxCell>
        <mxCell id="uQSnoUeBgvPZ3RYxkMRT-72" style="edgeStyle=none;rounded=0;orthogonalLoop=1;jettySize=auto;html=1;exitX=1;exitY=0.5;exitDx=0;exitDy=0;startArrow=block;startFill=1;endArrow=open;endFill=0;" edge="1" parent="uQSnoUeBgvPZ3RYxkMRT-88" source="uQSnoUeBgvPZ3RYxkMRT-36">
          <mxGeometry relative="1" as="geometry">
            <mxPoint x="140" y="70" as="targetPoint" />
          </mxGeometry>
        </mxCell>
        <mxCell id="uQSnoUeBgvPZ3RYxkMRT-36" value="" style="ellipse;whiteSpace=wrap;html=1;aspect=fixed;fillColor=#d5e8d4;strokeColor=#82b366;" vertex="1" parent="uQSnoUeBgvPZ3RYxkMRT-88">
          <mxGeometry x="60" y="50" width="40" height="40" as="geometry" />
        </mxCell>
        <mxCell id="uQSnoUeBgvPZ3RYxkMRT-37" value="" style="ellipse;whiteSpace=wrap;html=1;aspect=fixed;fillColor=#d5e8d4;strokeColor=#82b366;" vertex="1" parent="uQSnoUeBgvPZ3RYxkMRT-88">
          <mxGeometry x="141" y="50" width="40" height="40" as="geometry" />
        </mxCell>
        <mxCell id="uQSnoUeBgvPZ3RYxkMRT-39" value="" style="ellipse;whiteSpace=wrap;html=1;aspect=fixed;fillColor=#d5e8d4;strokeColor=#82b366;" vertex="1" parent="uQSnoUeBgvPZ3RYxkMRT-88">
          <mxGeometry x="200" y="110" width="40" height="40" as="geometry" />
        </mxCell>
        <mxCell id="uQSnoUeBgvPZ3RYxkMRT-76" style="edgeStyle=none;rounded=0;orthogonalLoop=1;jettySize=auto;html=1;exitX=1;exitY=0;exitDx=0;exitDy=0;entryX=0;entryY=1;entryDx=0;entryDy=0;startArrow=block;startFill=1;endArrow=open;endFill=0;" edge="1" parent="uQSnoUeBgvPZ3RYxkMRT-88" source="uQSnoUeBgvPZ3RYxkMRT-42" target="uQSnoUeBgvPZ3RYxkMRT-36">
          <mxGeometry relative="1" as="geometry" />
        </mxCell>
        <mxCell id="uQSnoUeBgvPZ3RYxkMRT-42" value="" style="ellipse;whiteSpace=wrap;html=1;aspect=fixed;fillColor=#d5e8d4;strokeColor=#82b366;" vertex="1" parent="uQSnoUeBgvPZ3RYxkMRT-88">
          <mxGeometry y="110" width="40" height="40" as="geometry" />
        </mxCell>
        <mxCell id="uQSnoUeBgvPZ3RYxkMRT-75" style="edgeStyle=none;rounded=0;orthogonalLoop=1;jettySize=auto;html=1;exitX=0;exitY=0.5;exitDx=0;exitDy=0;entryX=1;entryY=1;entryDx=0;entryDy=0;startArrow=block;startFill=1;endArrow=open;endFill=0;" edge="1" parent="uQSnoUeBgvPZ3RYxkMRT-88" source="uQSnoUeBgvPZ3RYxkMRT-45" target="uQSnoUeBgvPZ3RYxkMRT-42">
          <mxGeometry relative="1" as="geometry" />
        </mxCell>
        <mxCell id="uQSnoUeBgvPZ3RYxkMRT-45" value="" style="ellipse;whiteSpace=wrap;html=1;aspect=fixed;fillColor=#d5e8d4;strokeColor=#82b366;" vertex="1" parent="uQSnoUeBgvPZ3RYxkMRT-88">
          <mxGeometry x="100" y="170" width="40" height="40" as="geometry" />
        </mxCell>
        <mxCell id="uQSnoUeBgvPZ3RYxkMRT-74" style="edgeStyle=none;rounded=0;orthogonalLoop=1;jettySize=auto;html=1;exitX=0;exitY=1;exitDx=0;exitDy=0;entryX=1;entryY=0.5;entryDx=0;entryDy=0;startArrow=block;startFill=1;endArrow=open;endFill=0;" edge="1" parent="uQSnoUeBgvPZ3RYxkMRT-88" source="uQSnoUeBgvPZ3RYxkMRT-39" target="uQSnoUeBgvPZ3RYxkMRT-45">
          <mxGeometry relative="1" as="geometry" />
        </mxCell>
        <mxCell id="uQSnoUeBgvPZ3RYxkMRT-77" style="edgeStyle=none;rounded=0;orthogonalLoop=1;jettySize=auto;html=1;exitX=1;exitY=0.5;exitDx=0;exitDy=0;startArrow=block;startFill=1;endArrow=open;endFill=0;" edge="1" parent="uQSnoUeBgvPZ3RYxkMRT-88" source="uQSnoUeBgvPZ3RYxkMRT-50">
          <mxGeometry relative="1" as="geometry">
            <mxPoint x="420" y="110" as="targetPoint" />
          </mxGeometry>
        </mxCell>
        <mxCell id="uQSnoUeBgvPZ3RYxkMRT-50" value="" style="ellipse;whiteSpace=wrap;html=1;aspect=fixed;fillColor=#f8cecc;strokeColor=#b85450;" vertex="1" parent="uQSnoUeBgvPZ3RYxkMRT-88">
          <mxGeometry x="340" y="90" width="40" height="40" as="geometry" />
        </mxCell>
        <mxCell id="uQSnoUeBgvPZ3RYxkMRT-83" style="edgeStyle=none;rounded=0;orthogonalLoop=1;jettySize=auto;html=1;exitX=1;exitY=0.5;exitDx=0;exitDy=0;entryX=0;entryY=0.5;entryDx=0;entryDy=0;startArrow=block;startFill=1;endArrow=open;endFill=0;" edge="1" parent="uQSnoUeBgvPZ3RYxkMRT-88" source="uQSnoUeBgvPZ3RYxkMRT-37" target="uQSnoUeBgvPZ3RYxkMRT-50">
          <mxGeometry relative="1" as="geometry" />
        </mxCell>
        <mxCell id="uQSnoUeBgvPZ3RYxkMRT-51" value="" style="ellipse;whiteSpace=wrap;html=1;aspect=fixed;fillColor=#f8cecc;strokeColor=#b85450;" vertex="1" parent="uQSnoUeBgvPZ3RYxkMRT-88">
          <mxGeometry x="421" y="90" width="40" height="40" as="geometry" />
        </mxCell>
        <mxCell id="uQSnoUeBgvPZ3RYxkMRT-53" value="" style="ellipse;whiteSpace=wrap;html=1;aspect=fixed;fillColor=#f8cecc;strokeColor=#b85450;" vertex="1" parent="uQSnoUeBgvPZ3RYxkMRT-88">
          <mxGeometry x="480" y="150" width="40" height="40" as="geometry" />
        </mxCell>
        <mxCell id="uQSnoUeBgvPZ3RYxkMRT-78" style="edgeStyle=none;rounded=0;orthogonalLoop=1;jettySize=auto;html=1;exitX=1;exitY=1;exitDx=0;exitDy=0;entryX=0;entryY=0;entryDx=0;entryDy=0;startArrow=block;startFill=1;endArrow=open;endFill=0;" edge="1" parent="uQSnoUeBgvPZ3RYxkMRT-88" source="uQSnoUeBgvPZ3RYxkMRT-51" target="uQSnoUeBgvPZ3RYxkMRT-53">
          <mxGeometry relative="1" as="geometry" />
        </mxCell>
        <mxCell id="uQSnoUeBgvPZ3RYxkMRT-84" style="edgeStyle=none;rounded=0;orthogonalLoop=1;jettySize=auto;html=1;exitX=0;exitY=0.5;exitDx=0;exitDy=0;entryX=0.975;entryY=0.7;entryDx=0;entryDy=0;entryPerimeter=0;startArrow=block;startFill=1;endArrow=open;endFill=0;" edge="1" parent="uQSnoUeBgvPZ3RYxkMRT-88" source="uQSnoUeBgvPZ3RYxkMRT-56" target="uQSnoUeBgvPZ3RYxkMRT-39">
          <mxGeometry relative="1" as="geometry" />
        </mxCell>
        <mxCell id="uQSnoUeBgvPZ3RYxkMRT-56" value="" style="ellipse;whiteSpace=wrap;html=1;aspect=fixed;fillColor=#f8cecc;strokeColor=#b85450;" vertex="1" parent="uQSnoUeBgvPZ3RYxkMRT-88">
          <mxGeometry x="280" y="150" width="40" height="40" as="geometry" />
        </mxCell>
        <mxCell id="uQSnoUeBgvPZ3RYxkMRT-80" style="edgeStyle=none;rounded=0;orthogonalLoop=1;jettySize=auto;html=1;exitX=0;exitY=0.5;exitDx=0;exitDy=0;entryX=1;entryY=1;entryDx=0;entryDy=0;startArrow=block;startFill=1;endArrow=open;endFill=0;" edge="1" parent="uQSnoUeBgvPZ3RYxkMRT-88" source="uQSnoUeBgvPZ3RYxkMRT-59" target="uQSnoUeBgvPZ3RYxkMRT-56">
          <mxGeometry relative="1" as="geometry" />
        </mxCell>
        <mxCell id="uQSnoUeBgvPZ3RYxkMRT-59" value="" style="ellipse;whiteSpace=wrap;html=1;aspect=fixed;fillColor=#f8cecc;strokeColor=#b85450;" vertex="1" parent="uQSnoUeBgvPZ3RYxkMRT-88">
          <mxGeometry x="380" y="210" width="40" height="40" as="geometry" />
        </mxCell>
        <mxCell id="uQSnoUeBgvPZ3RYxkMRT-79" style="edgeStyle=none;rounded=0;orthogonalLoop=1;jettySize=auto;html=1;exitX=0;exitY=1;exitDx=0;exitDy=0;entryX=1;entryY=0.5;entryDx=0;entryDy=0;startArrow=block;startFill=1;endArrow=open;endFill=0;" edge="1" parent="uQSnoUeBgvPZ3RYxkMRT-88" source="uQSnoUeBgvPZ3RYxkMRT-53" target="uQSnoUeBgvPZ3RYxkMRT-59">
          <mxGeometry relative="1" as="geometry" />
        </mxCell>
        <mxCell id="uQSnoUeBgvPZ3RYxkMRT-60" style="edgeStyle=none;rounded=0;orthogonalLoop=1;jettySize=auto;html=1;exitX=1;exitY=1;exitDx=0;exitDy=0;entryX=0.5;entryY=0;entryDx=0;entryDy=0;startArrow=none;startFill=0;endArrow=classic;endFill=1;" edge="1" parent="uQSnoUeBgvPZ3RYxkMRT-88" source="uQSnoUeBgvPZ3RYxkMRT-61" target="uQSnoUeBgvPZ3RYxkMRT-50">
          <mxGeometry x="280" y="10" as="geometry" />
        </mxCell>
        <mxCell id="uQSnoUeBgvPZ3RYxkMRT-61" value="" style="ellipse;whiteSpace=wrap;html=1;aspect=fixed;" vertex="1" parent="uQSnoUeBgvPZ3RYxkMRT-88">
          <mxGeometry x="280" y="20" width="40" height="40" as="geometry" />
        </mxCell>
        <mxCell id="uQSnoUeBgvPZ3RYxkMRT-62" value="合并后头" style="text;html=1;align=center;verticalAlign=middle;resizable=0;points=[];autosize=1;" vertex="1" parent="uQSnoUeBgvPZ3RYxkMRT-88">
          <mxGeometry x="240" width="60" height="20" as="geometry" />
        </mxCell>
      </root>
    </mxGraphModel>
  </diagram>
</mxfile>
